#!OML:ASF I:\golf\golf\golf 2\Subject 1\2002-09-07\Subject1.ASF
:FULLY-SPECIFIED
:DEGREES
445
root 1.89411 17.984 -9.4125 7.18377 -1.64084 -5.36105
lowerback -2.74064 0.372335 -4.18252
upperback -0.267158 0.56407 4.62859
thorax 1.17606 0.253556 7.20474
lowerneck -25.1412 -2.97887 -1.3706
upperneck 15.0938 -3.50056 -0.2975
head 8.82944 -1.75717 -0.391199
rclavicle 2.13694e-015 2.5842e-014
rhumerus -38.7835 -18.3269 -70.5659
rradius 22.2416
rwrist -8.98248
rhand -20.2671 8.61614
rfingers 7.12502
rthumb 6.08198 -21.2766
lclavicle 2.13694e-015 2.5842e-014
lhumerus -31.0838 5.90002 77.5139
lradius 25.645
lwrist 7.90272
lhand -15.0733 35.0435
lfingers 7.12502
lthumb 11.0941 -295.27
rfemur -25.6277 -2.47588 20.9468
rtibia 47.3678
rfoot -12.814 -8.53417
rtoes 6.86287
lfemur -11.9961 3.79434 -18.2518
ltibia 26.9725
lfoot -18.343 2.20234
ltoes -2.93786
446
root 1.8843 17.9852 -9.43448 7.25335 -1.76275 -5.38006
lowerback -2.7173 0.441065 -4.06487
upperback -0.348774 0.654333 4.55555
thorax 1.06658 0.305348 7.06018
lowerneck -25.2131 -2.96152 -1.20753
upperneck 15.1843 -3.50504 -0.431394
head 8.86701 -1.76459 -0.466019
rclavicle -3.97569e-015 -4.37326e-015
rhumerus -38.7297 -17.9707 -71.0636
rradius 22.8118
rwrist -9.38267
rhand -20.305 9.08014
rfingers 7.12502
rthumb 6.04536 -20.8136
lclavicle -3.97569e-015 -4.37326e-015
lhumerus -31.3312 6.25352 77.4856
lradius 25.6181
lwrist 7.8209
lhand -15.1412 35.4774
lfingers 7.12502
lthumb 11.0285 -294.832
rfemur -25.137 -2.19473 20.9135
rtibia 46.6715
rfoot -12.9504 -8.22214
rtoes 6.72061
lfemur -12.1216 3.80873 -18.213
ltibia 26.982
lfoot -18.2881 2.29677
ltoes -2.78689
447
root 1.87179 17.987 -9.45482 7.33141 -1.94021 -5.38101
lowerback -2.76968 0.530489 -3.9688
upperback -0.44887 0.775198 4.44853
thorax 0.976817 0.372081 6.89396
lowerneck -25.0804 -2.94145 -1.08557
upperneck 15.2488 -3.51671 -0.463291
head 8.86452 -1.76657 -0.496908
rclavicle -1.78906e-015 1.98785e-015
rhumerus -38.7234 -17.5005 -71.6408
rradius 23.4324
rwrist -10.0028
rhand -20.2887 9.36142
rfingers 7.12502
rthumb 6.06113 -20.5319
lclavicle -1.78906e-015 1.98785e-015
lhumerus -31.5975 6.46193 77.4723
lradius 25.555
lwrist 7.84792
lhand -15.123 35.3077
lfingers 7.12502
lthumb 11.0461 -295.003
rfemur -24.6134 -1.79483 20.8675
rtibia 45.8789
rfoot -13.0386 -7.87197
rtoes 7.82981
lfemur -12.2626 3.75125 -18.187
ltibia 26.9982
lfoot -18.2293 2.44546
ltoes -2.24892
448
root 1.8562 17.9876 -9.47449 7.37161 -2.05316 -5.47738
lowerback -2.85007 0.560779 -3.852
upperback -0.495652 0.814458 4.45733
thorax 0.969279 0.393595 6.83778
lowerneck -24.9738 -2.90716 -1.22373
upperneck 15.3219 -3.44719 -0.354897
head 8.87701 -1.73003 -0.426737
rclavicle 7.45443e-015 -1.15295e-014
rhumerus -38.565 -16.628 -72.3004
rradius 24.1029
rwrist -10.8498
rhand -20.2209 9.59199
rfingers 7.12502
rthumb 6.12653 -20.2994
lclavicle 7.45443e-015 -1.15295e-014
lhumerus -31.9076 6.86486 77.51
lradius 25.5079
lwrist 7.71828
lhand -14.7793 34.9573
lfingers 7.12502
lthumb 11.3776 -295.371
rfemur -24.0275 -1.37461 20.9546
rtibia 44.9919
rfoot -13.0006 -7.63029
rtoes 7.4879
lfemur -12.3554 3.75466 -18.029
ltibia 27.0132
lfoot -18.1777 2.49718
ltoes -2.12117
449
root 1.84407 17.9909 -9.49356 7.43221 -2.13572 -5.54107
lowerback -2.96918 0.571898 -3.79018
upperback -0.477495 0.828628 4.51566
thorax 1.05285 0.397868 6.86689
lowerneck -25.0604 -2.89088 -1.36588
upperneck 15.3466 -3.37293 -0.357939
head 8.90239 -1.70413 -0.395846
rclavicle 2.68359e-015 -3.97569e-016
rhumerus -38.1986 -15.807 -72.879
rradius 24.7125
rwrist -11.4992
rhand -20.2637 9.67029
rfingers 7.12502
rthumb 6.08524 -20.2223
lclavicle 2.68359e-015 -3.97569e-016
lhumerus -32.1106 7.44071 77.6452
lradius 25.4381
lwrist 7.50072
lhand -14.4794 34.8444
lfingers 7.12502
lthumb 11.6668 -295.5
rfemur -23.4681 -1.04825 20.996
rtibia 44.0127
rfoot -12.9242 -7.34936
rtoes 5.96786
lfemur -12.4597 3.79968 -17.9266
ltibia 27.008
lfoot -18.1157 2.54046
ltoes -2.49302
450
root 1.83543 17.9951 -9.51034 7.50061 -2.27741 -5.46734
lowerback -3.17128 0.618279 -3.81944
upperback -0.418849 0.894555 4.50707
thorax 1.21695 0.424472 6.88151
lowerneck -25.1415 -2.90113 -1.34444
upperneck 15.2682 -3.35702 -0.523179
head 8.88497 -1.7146 -0.454218
rclavicle -2.01766e-014 -5.12864e-014
rhumerus -37.735 -15.2954 -73.3317
rradius 25.1962
rwrist -11.8938
rhand -20.2707 9.60158
rfingers 7.12502
rthumb 6.07844 -20.2912
lclavicle -2.01766e-014 -5.12864e-014
lhumerus -32.1431 7.9801 77.8308
lradius 25.2467
lwrist 7.23842
lhand -14.3092 34.8258
lfingers 7.12502
lthumb 11.8309 -295.528
rfemur -22.9098 -0.735213 20.8444
rtibia 42.9639
rfoot -12.7986 -6.77313
rtoes 5.86852
lfemur -12.5604 3.74593 -18.0094
ltibia 26.9929
lfoot -18.0624 2.78556
ltoes -3.10365
451
root 1.82496 17.998 -9.52561 7.5201 -2.39481 -5.35627
lowerback -3.36808 0.654047 -3.93231
upperback -0.361085 0.949322 4.51191
thorax 1.3772 0.445062 6.95891
lowerneck -25.0232 -2.90815 -1.35139
upperneck 15.1071 -3.33105 -0.688436
head 8.80649 -1.72254 -0.502664
rclavicle 5.66536e-015 4.33351e-014
rhumerus -37.2892 -14.8189 -73.6939
rradius 25.6014
rwrist -12.1362
rhand -19.9136 9.58729
rfingers 7.12502
rthumb 6.42325 -20.2953
lclavicle 5.66536e-015 4.33351e-014
lhumerus -32.1824 8.43774 78.0626
lradius 24.979
lwrist 6.96246
lhand -14.0091 34.6335
lfingers 7.12502
lthumb 12.1203 -295.738
rfemur -22.2933 -0.495022 20.6764
rtibia 41.8658
rfoot -12.6493 -6.02254
rtoes 6.02681
lfemur -12.6112 3.64896 -18.1127
ltibia 26.9898
lfoot -18.034 3.00415
ltoes -3.41733
452
root 1.81035 18.0005 -9.54045 7.52393 -2.46466 -5.30232
lowerback -3.32102 0.65388 -3.82026
upperback -0.467615 0.947555 4.38038
thorax 1.24489 0.451647 6.75133
lowerneck -24.7261 -2.83731 -1.2316
upperneck 15.0648 -3.27761 -0.712289
head 8.74005 -1.69362 -0.51735
rclavicle 1.06847e-015 -1.59028e-015
rhumerus -37.1181 -14.3289 -74.2676
rradius 26.012
rwrist -12.2794
rhand -19.4684 9.45743
rfingers 7.12502
rthumb 6.85297 -20.4117
lclavicle 1.06847e-015 -1.59028e-015
lhumerus -32.5376 8.53253 78.0516
lradius 24.8228
lwrist 6.95663
lhand -13.6666 34.4878
lfingers 7.12502
lthumb 12.4506 -295.903
rfemur -21.6586 -0.272353 20.6151
rtibia 40.7182
rfoot -12.4748 -5.39056
rtoes 4.39206
lfemur -12.6606 3.72826 -18.1209
ltibia 26.9884
lfoot -17.9755 2.94942
ltoes -3.37287
453
root 1.79253 18.001 -9.55458 7.5267 -2.53942 -5.30677
lowerback -3.213 0.679511 -3.71453
upperback -0.60597 0.979586 4.2758
thorax 1.04027 0.477707 6.57621
lowerneck -24.5435 -2.77247 -1.09993
upperneck 15.1738 -3.23652 -0.722945
head 8.74499 -1.66788 -0.534721
rclavicle -9.59136e-015 -2.82274e-014
rhumerus -37.0174 -13.751 -74.86
rradius 26.4959
rwrist -12.537
rhand -19.5002 9.19507
rfingers 7.12502
rthumb 6.82226 -20.675
lclavicle -9.59136e-015 -2.82274e-014
lhumerus -32.8711 8.5268 78.1037
lradius 24.6411
lwrist 7.03864
lhand -13.4534 34.6702
lfingers 7.12502
lthumb 12.6561 -295.733
rfemur -21.0042 0.0187111 20.6163
rtibia 39.5284
rfoot -12.4498 -4.91849
rtoes 2.91168
lfemur -12.7023 3.95588 -18.053
ltibia 26.9639
lfoot -17.8702 2.75797
ltoes -3.29553
454
root 1.77473 18.0014 -9.56598 7.53566 -2.63121 -5.31177
lowerback -3.58506 0.716956 -3.69801
upperback -0.446525 1.03392 4.24896
thorax 1.40699 0.490453 6.55024
lowerneck -24.6628 -2.73829 -1.03991
upperneck 15.2121 -3.19165 -0.803673
head 8.77558 -1.65229 -0.567773
rclavicle 3.47873e-016 5.96354e-015
rhumerus -36.4213 -13.338 -75.3525
rradius 26.8507
rwrist -12.6753
rhand -19.6551 9.14428
rfingers 7.12502
rthumb 6.67273 -20.7306
lclavicle 3.47873e-016 5.96354e-015
lhumerus -32.7268 8.68207 78.3514
lradius 24.3757
lwrist 6.95144
lhand -13.2438 34.8778
lfingers 7.12502
lthumb 12.8582 -295.538
rfemur -20.3549 0.275908 20.6246
rtibia 38.3142
rfoot -12.853 -4.64246
rtoes 3.11365
lfemur -12.7349 4.07721 -17.9893
ltibia 26.9473
lfoot -17.8047 2.71047
ltoes -2.94139
